<?xml version="1.0" encoding="UTF-8"?>
<svg version="1.1" xmlns="http://www.w3.org/2000/svg" width="700" height="701">
<path d="M0 0 C231 0 462 0 700 0 C700 231.33 700 462.66 700 701 C469 701 238 701 0 701 C0 469.67 0 238.34 0 0 Z " fill="#FEFEFE" transform="translate(0,0)"/>
<path d="M0 0 C0.92683594 0.79277344 1.85367188 1.58554688 2.80859375 2.40234375 C9.28466077 8.08798928 14.81266411 14.12398103 20 21 C20.71671875 21.93972656 21.4334375 22.87945312 22.171875 23.84765625 C38.99772095 46.9682779 50.07845832 75.21103781 51 104 C51.03109863 104.7007666 51.06219727 105.4015332 51.09423828 106.12353516 C52.84788333 149.36542594 35.80591612 186.78822489 7.35888672 218.52734375 C4.46487318 221.66365163 1.36775769 224.38826955 -2 227 C-2.89074219 227.70382812 -3.78148437 228.40765625 -4.69921875 229.1328125 C-37.39988005 254.35293036 -77.37369728 266.28016357 -118.57519531 261.22851562 C-147.25199713 257.15273932 -174.31349941 245.26693234 -196 226 C-196.85609863 225.2582251 -196.85609863 225.2582251 -197.72949219 224.50146484 C-207.57588437 215.93702009 -215.71265072 206.8264593 -223 196 C-223.41475586 195.38543945 -223.82951172 194.77087891 -224.25683594 194.13769531 C-232.69691539 181.39885682 -239.37027184 166.86876596 -243 152 C-243.15952148 151.36320313 -243.31904297 150.72640625 -243.48339844 150.0703125 C-244.03979894 147.84068591 -244.58493628 145.6086383 -245.125 143.375 C-245.29612305 142.66972168 -245.46724609 141.96444336 -245.64355469 141.23779297 C-247.92845041 131.48023928 -248.23859947 121.9990086 -248.25 112 C-248.25133942 111.30747131 -248.25267883 110.61494263 -248.25405884 109.90142822 C-248.24972929 99.58903942 -247.56889772 90.02350278 -245 80 C-244.80664062 78.95457031 -244.61328125 77.90914063 -244.4140625 76.83203125 C-239.34050127 50.31114303 -223.43642493 26.13796317 -205 7 C-204.05447266 5.95972656 -204.05447266 5.95972656 -203.08984375 4.8984375 C-181.40064298 -18.26848904 -149.06786149 -32.08808772 -118 -36 C-116.72576172 -36.16628906 -116.72576172 -36.16628906 -115.42578125 -36.3359375 C-72.95547661 -41.03369915 -32.11624356 -27.95390272 0 0 Z " fill="#267BD4" transform="translate(448,182)"/>
<path d="M0 0 C18.85780033 15.17990105 32.20918529 35.37764041 35.62719727 59.54077148 C36.23926595 65.22014357 36.32885493 70.85462919 36.3125 76.5625 C36.32861328 77.69107422 36.34472656 78.81964844 36.36132812 79.98242188 C36.37372709 101.54422662 26.32471572 122.23231841 12 138 C11.19175781 138.93005859 11.19175781 138.93005859 10.3671875 139.87890625 C-4.37276939 155.84102037 -28.51992906 167.02409388 -50.12475586 168.10644531 C-76.10480524 168.84230824 -99.63071101 161.70566908 -119 144 C-120.26070313 142.87851562 -120.26070313 142.87851562 -121.546875 141.734375 C-138.25711361 126.06203941 -149.07737341 102.99185453 -150 80 C-150.06316406 78.85660156 -150.12632812 77.71320313 -150.19140625 76.53515625 C-150.93522359 52.13314871 -141.88119952 29.04505501 -125.1640625 11.265625 C-124.44992187 10.51796875 -123.73578125 9.7703125 -123 9 C-122.47148437 8.39671875 -121.94296875 7.7934375 -121.3984375 7.171875 C-113.14608672 -1.88455099 -101.31311896 -8.62247148 -90 -13 C-89.31421875 -13.28230469 -88.6284375 -13.56460938 -87.921875 -13.85546875 C-59.01764645 -24.72213483 -24.2526912 -18.8829822 0 0 Z " fill="#FEFEFE" transform="translate(406,220)"/>
<path d="M0 0 C1.58361328 -0.04350586 1.58361328 -0.04350586 3.19921875 -0.08789062 C11.21714693 -0.15247121 17.46923347 1.03269939 23.71484375 6.27734375 C24.24207031 6.92832031 24.76929688 7.57929688 25.3125 8.25 C25.85777344 8.89839844 26.40304688 9.54679687 26.96484375 10.21484375 C32.05338475 17.78422468 31.31190745 27.53859213 30.375 36.3125 C28.68766337 42.59481584 25.33082384 46.99032413 20.4140625 51.15625 C14.01519056 54.78472911 7.2327789 54.70812297 0.0625 54.75 C-0.91912109 54.78287109 -1.90074219 54.81574219 -2.91210938 54.84960938 C-10.1092816 54.90200441 -15.663466 53.45173103 -21.625 49.3125 C-28.27171063 42.32084702 -28.85720012 36.46541057 -29 27.125 C-29.03738281 26.21685547 -29.07476562 25.30871094 -29.11328125 24.37304688 C-29.2011373 17.55444129 -27.74833607 12.78928094 -23.625 7.3125 C-21.2734375 5.15625 -21.2734375 5.15625 -19 3.8125 C-18.24460938 3.3484375 -17.48921875 2.884375 -16.7109375 2.40625 C-11.33800081 -0.41102018 -5.92487476 0.05309028 0 0 Z " fill="#20204D" transform="translate(227.625,488.6875)"/>
<path d="M0 0 C1.18078125 -0.02900391 2.3615625 -0.05800781 3.578125 -0.08789062 C14.64228107 -0.16887825 14.64228107 -0.16887825 19.25 4.3125 C23.92075916 9.48147347 23.86092566 14.18469168 23.75 20.8125 C23.76546875 21.73675781 23.7809375 22.66101563 23.796875 23.61328125 C23.76420001 29.32323571 23.22619384 32.91217882 19.25 37.3125 C13.73719972 42.6132695 7.45248555 41.90832021 0.25 41.8125 C-0.91273438 41.82796875 -2.07546875 41.8434375 -3.2734375 41.859375 C-9.69479498 41.82998664 -13.91712417 41.71870428 -18.75 37.3125 C-23.22223445 32.22340562 -22.9326703 27.37065836 -22.9375 20.9375 C-22.94974609 20.08671875 -22.96199219 19.2359375 -22.97460938 18.359375 C-22.99710655 8.73058205 -22.99710655 8.73058205 -19.3125 4.765625 C-12.7075139 -0.32021429 -8.19840174 0.06625863 0 0 Z " fill="#20204D" transform="translate(471.75,501.6875)"/>
<path d="M0 0 C0.98935547 -0.01611328 1.97871094 -0.03222656 2.99804688 -0.04882812 C9.82355458 -0.05341824 13.28123011 0.70326742 18.3359375 5.4453125 C20.71628138 9.39819124 20.74828446 12.64815376 20.6875 17.1875 C20.68036987 18.39587524 20.68036987 18.39587524 20.6730957 19.62866211 C20.51774767 24.09002065 20.22581292 27.33519262 17.25 30.875 C12.38052509 35.3116327 6.44635965 34.56491894 0.25 34.625 C-1.22823242 34.66850586 -1.22823242 34.66850586 -2.73632812 34.71289062 C-8.62195381 34.76427621 -12.40118257 34.48357448 -16.9375 30.3125 C-19.57808565 25.95390861 -19.304974 21.83839471 -19.3125 16.875 C-19.33699219 16.02873047 -19.36148438 15.18246094 -19.38671875 14.31054688 C-19.40589179 10.22988396 -19.29171752 7.90624346 -17.1640625 4.33984375 C-11.86845901 -0.48194258 -6.85451804 -0.02224049 0 0 Z " fill="#FCFCFC" transform="translate(227.9375,498.6875)"/>
<path d="M0 0 C4.20809884 -0.11656783 8.41577996 -0.18737611 12.625 -0.25 C14.40970703 -0.30027344 14.40970703 -0.30027344 16.23046875 -0.3515625 C27.29015573 -0.47513442 27.29015573 -0.47513442 32 4 C36.38107961 8.83862672 35.51416201 14.15787834 35.5 20.375 C35.52835937 21.4990625 35.55671875 22.623125 35.5859375 23.78125 C35.607767 33.01512769 35.607767 33.01512769 32.71875 36.6640625 C26.56067999 41.95504794 20.98415632 41.36641076 13.125 41.375 C11.95324219 41.39949219 10.78148437 41.42398438 9.57421875 41.44921875 C3.10459488 41.47124925 -1.13755155 41.46551388 -6 37 C-9.33271032 33.2229283 -9.61993863 29.38537908 -9.49609375 24.51171875 C-8.66789838 20.31857211 -6.19763024 17.70887329 -3 15 C-0.44276771 13.72138385 1.36737102 13.88663391 4.2265625 13.90234375 C5.2578125 13.90556641 6.2890625 13.90878906 7.3515625 13.91210938 C8.97191406 13.92467773 8.97191406 13.92467773 10.625 13.9375 C12.25695312 13.94426758 12.25695312 13.94426758 13.921875 13.95117188 C16.61463789 13.96298224 19.30729188 13.97945222 22 14 C22 16.97 22 19.94 22 23 C20.56785156 23.06058594 19.13570313 23.12117187 17.66015625 23.18359375 C15.79425959 23.26798104 13.92837476 23.35262993 12.0625 23.4375 C11.11697266 23.47681641 10.17144531 23.51613281 9.19726562 23.55664062 C8.29814453 23.59853516 7.39902344 23.64042969 6.47265625 23.68359375 C5.64000244 23.72025146 4.80734863 23.75690918 3.94946289 23.79467773 C1.99661142 23.79367103 1.99661142 23.79367103 1 25 C0.83333333 27.5 0.83333333 27.5 1 30 C2.61686074 31.61686074 4.3907615 31.12989349 6.62109375 31.1328125 C7.55630859 31.13410156 8.49152344 31.13539063 9.45507812 31.13671875 C10.43927734 31.13285156 11.42347656 31.12898437 12.4375 31.125 C13.90799805 31.13080078 13.90799805 31.13080078 15.40820312 31.13671875 C16.81295898 31.13478516 16.81295898 31.13478516 18.24609375 31.1328125 C19.10904053 31.13168457 19.9719873 31.13055664 20.86108398 31.12939453 C23.05256423 31.13721269 23.05256423 31.13721269 25 30 C25 23.73 25 17.46 25 11 C22.48322887 9.74161443 20.58706712 9.79181027 17.7734375 9.68359375 C16.7421875 9.64169922 15.7109375 9.59980469 14.6484375 9.55664062 C13.56820313 9.51732422 12.48796875 9.47800781 11.375 9.4375 C10.28703125 9.39431641 9.1990625 9.35113281 8.078125 9.30664062 C5.3855483 9.2003547 2.69287747 9.09831943 0 9 C0 6.03 0 3.06 0 0 Z " fill="#1D1D4B" transform="translate(325,502)"/>
<path d="M0 0 C1.81274414 0.02707031 1.81274414 0.02707031 3.66210938 0.0546875 C6.62973184 0.10160643 9.59569661 0.16724398 12.5625 0.25 C12.5625 3.55 12.5625 6.85 12.5625 10.25 C0.1875 10.745 0.1875 10.745 -12.4375 11.25 C-12.7675 21.15 -13.0975 31.05 -13.4375 41.25 C-16.7375 41.25 -20.0375 41.25 -23.4375 41.25 C-23.5118839 36.78429551 -23.56621171 32.31892316 -23.60229492 27.8527832 C-23.61734353 26.33481562 -23.63778738 24.81689124 -23.66381836 23.29907227 C-23.70037653 21.11203323 -23.71726523 18.92557104 -23.73046875 16.73828125 C-23.7461792 15.42384033 -23.76188965 14.10939941 -23.77807617 12.75512695 C-23.4145972 9.01428993 -22.69624461 7.21082277 -20.4375 4.25 C-14.13473286 -0.83371341 -7.82473792 -0.22197838 0 0 Z " fill="#221F4C" transform="translate(398.4375,501.75)"/>
<path d="M0 0 C1.21300781 0.01804687 2.42601562 0.03609375 3.67578125 0.0546875 C6.6596679 0.10167784 9.64192279 0.16736628 12.625 0.25 C12.625 3.55 12.625 6.85 12.625 10.25 C11.54230835 10.28758423 11.54230835 10.28758423 10.43774414 10.32592773 C7.187465 10.44151302 3.93750312 10.56440774 0.6875 10.6875 C-0.44880859 10.72681641 -1.58511719 10.76613281 -2.75585938 10.80664062 C-4.37524414 10.86948242 -4.37524414 10.86948242 -6.02734375 10.93359375 C-7.02757568 10.97025146 -8.02780762 11.00690918 -9.05834961 11.04467773 C-11.33569188 10.99671841 -11.33569188 10.99671841 -12.375 12.25 C-12.53358842 14.39386657 -12.62629298 16.54266838 -12.69140625 18.69140625 C-12.73330078 19.99658203 -12.77519531 21.30175781 -12.81835938 22.64648438 C-12.85817608 24.0351533 -12.89788825 25.42382522 -12.9375 26.8125 C-12.98067989 28.20509183 -13.024294 29.59767028 -13.06835938 30.99023438 C-13.17485876 34.41004801 -13.27686923 37.82993763 -13.375 41.25 C-16.675 41.25 -19.975 41.25 -23.375 41.25 C-23.47435088 36.94504985 -23.54669268 32.64071817 -23.59472656 28.33496094 C-23.61476332 26.87227748 -23.64200104 25.40967334 -23.67675781 23.94726562 C-23.72563225 21.8370399 -23.74804659 19.72787864 -23.765625 17.6171875 C-23.78657227 16.34987793 -23.80751953 15.08256836 -23.82910156 13.77685547 C-23.15291602 8.52514775 -20.67433721 5.51990239 -16.9609375 1.890625 C-11.40472789 -0.65143168 -6.02606953 -0.16974844 0 0 Z " fill="#24214B" transform="translate(295.375,501.75)"/>
<path d="M0 0 C1.53527344 -0.01836914 1.53527344 -0.01836914 3.1015625 -0.03710938 C4.07867187 -0.03904297 5.05578125 -0.04097656 6.0625 -0.04296875 C7.41021484 -0.04913208 7.41021484 -0.04913208 8.78515625 -0.05541992 C11 0.1875 11 0.1875 13 2.1875 C13.19856972 5.06092061 13.27828946 7.81611988 13.25 10.6875 C13.25773437 11.47253906 13.26546875 12.25757813 13.2734375 13.06640625 C13.25330787 18.93419213 13.25330787 18.93419213 11 21.1875 C8.78515625 21.44628906 8.78515625 21.44628906 6.0625 21.453125 C5.08539063 21.45570313 4.10828125 21.45828125 3.1015625 21.4609375 C2.07804687 21.45320312 1.05453125 21.44546875 0 21.4375 C-1.02351563 21.44523438 -2.04703125 21.45296875 -3.1015625 21.4609375 C-4.07867187 21.45835937 -5.05578125 21.45578125 -6.0625 21.453125 C-6.96097656 21.45086914 -7.85945313 21.44861328 -8.78515625 21.44628906 C-11 21.1875 -11 21.1875 -13 19.1875 C-13.22705078 17.30810547 -13.22705078 17.30810547 -13.1953125 15.0546875 C-13.18886719 14.24902344 -13.18242187 13.44335938 -13.17578125 12.61328125 C-13.15064453 11.35064453 -13.15064453 11.35064453 -13.125 10.0625 C-13.11597656 9.21300781 -13.10695313 8.36351562 -13.09765625 7.48828125 C-13.07405647 5.38790116 -13.03818483 3.28766556 -13 1.1875 C-9.11308052 -0.75595974 -4.27485419 0.00269197 0 0 Z " fill="#FAFBFA" transform="translate(472,511.8125)"/>
<path d="M0 0 C3.3 0 6.6 0 10 0 C10 13.53 10 27.06 10 41 C6.7 41 3.4 41 0 41 C0 27.47 0 13.94 0 0 Z " fill="#26204C" transform="translate(424,502)"/>
<path d="M0 0 C3.3 0 6.6 0 10 0 C10 2.97 10 5.94 10 9 C6.7 9 3.4 9 0 9 C0 6.03 0 3.06 0 0 Z " fill="#29234E" transform="translate(424,485)"/>
</svg>
