<?xml version="1.0" standalone="no"?>
<!DOCTYPE svg PUBLIC "-//W3C//DTD SVG 20010904//EN"
 "http://www.w3.org/TR/2001/REC-SVG-20010904/DTD/svg10.dtd">
<svg version="1.0" xmlns="http://www.w3.org/2000/svg"
 width="201.000000pt" height="196.000000pt" viewBox="0 0 201.000000 196.000000"
 preserveAspectRatio="xMidYMid meet">

<g transform="translate(0.000000,196.000000) scale(0.100000,-0.100000)"
fill="#000000" stroke="none">
<path d="M840 1826 c-242 -52 -455 -211 -574 -427 -183 -333 -116 -764 158
-1022 114 -107 254 -185 391 -217 116 -27 280 -27 393 0 322 77 576 341 637
663 56 298 -47 608 -267 799 -115 100 -194 144 -333 188 -90 28 -307 37 -405
16z m325 -322 c80 -24 152 -70 225 -142 l78 -77 51 54 c59 61 55 63 110 -39
48 -90 72 -197 72 -313 -1 -318 -202 -580 -511 -668 -134 -39 -339 -21 -465
40 -76 38 -75 35 -17 94 l54 54 -51 37 c-185 136 -268 359 -215 575 38 151
124 261 264 338 71 40 115 53 198 62 62 6 159 -1 207 -15z"/>
</g>
</svg>
