<?xml version="1.0" standalone="no"?>
<!DOCTYPE svg PUBLIC "-//W3C//DTD SVG 20010904//EN"
 "http://www.w3.org/TR/2001/REC-SVG-20010904/DTD/svg10.dtd">
<svg version="1.0" xmlns="http://www.w3.org/2000/svg"
 width="700.000000pt" height="701.000000pt" viewBox="0 0 700.000000 701.000000"
 preserveAspectRatio="xMidYMid meet">
<metadata>
Created by potrace 1.16, written by Peter Selinger 2001-2019
</metadata>
<g transform="translate(0.000000,701.000000) scale(0.100000,-0.100000)"
fill="#000000" stroke="none">
<path d="M3357 5550 c-573 -54 -1062 -428 -1262 -965 -64 -171 -87 -303 -88
-500 0 -202 17 -316 73 -486 76 -231 184 -405 359 -579 235 -235 509 -376 828
-426 143 -22 396 -15 533 14 574 124 1010 554 1147 1132 37 157 43 400 14 569
-95 554 -484 1006 -1013 1175 -188 60 -401 84 -591 66z m368 -580 c181 -46
397 -182 490 -309 17 -22 33 -41 36 -41 4 0 40 39 79 88 108 129 95 120 125
86 43 -48 122 -182 155 -260 280 -674 -83 -1426 -790 -1635 -196 -58 -489 -54
-690 11 -75 25 -233 100 -270 129 l-25 20 95 97 c87 87 93 97 76 107 -64 40
-166 130 -222 196 -78 90 -164 256 -196 376 -17 65 -21 109 -21 235 -1 140 2
164 26 241 53 175 122 294 239 410 144 144 333 239 543 273 66 10 271 -3 350
-24z"/>
<path d="M2146 2110 c-75 -23 -140 -99 -152 -177 -12 -81 0 -195 26 -241 26
-46 79 -87 131 -102 47 -14 223 -13 270 1 51 16 105 62 131 112 19 35 22 58
22 147 0 89 -3 112 -22 147 -26 50 -80 96 -131 112 -44 13 -232 13 -275 1z
m273 -105 c16 -8 36 -30 45 -49 22 -46 22 -166 0 -212 -25 -53 -57 -64 -179
-64 -165 0 -195 26 -195 170 0 91 15 131 58 154 38 21 232 22 271 1z"/>
<path d="M2801 1972 c-68 -34 -75 -54 -79 -232 l-4 -160 51 0 51 0 0 143 c0
98 4 147 12 155 8 8 52 12 130 12 l118 0 0 50 0 50 -122 0 c-97 0 -130 -4
-157 -18z"/>
<path d="M3250 1945 l0 -45 111 0 c61 0 119 -5 130 -10 17 -9 19 -22 19 -105
0 -115 0 -115 -130 -115 -103 0 -130 9 -130 45 0 35 27 45 129 45 l91 0 0 45
0 45 -107 0 c-121 0 -159 -14 -188 -69 -22 -44 -19 -113 7 -146 34 -44 75 -55
198 -55 191 0 220 27 220 205 0 180 -28 205 -230 205 l-120 0 0 -45z"/>
<path d="M3831 1972 c-69 -34 -76 -55 -79 -233 l-3 -159 50 0 50 0 3 153 3
152 128 3 127 3 0 49 0 50 -122 0 c-97 0 -130 -4 -157 -18z"/>
<path d="M4240 1785 l0 -205 50 0 50 0 0 205 0 205 -50 0 -50 0 0 -205z"/>
<path d="M4571 1973 c-65 -34 -76 -60 -76 -188 0 -99 3 -117 21 -142 37 -51
76 -63 204 -63 127 0 167 12 204 63 18 24 21 43 21 135 0 118 -10 150 -58 186
-25 18 -45 21 -155 24 -106 2 -133 0 -161 -15z m267 -95 c7 -7 12 -43 12 -93
0 -50 -5 -86 -12 -93 -16 -16 -220 -16 -236 0 -16 16 -16 170 0 186 8 8 49 12
118 12 69 0 110 -4 118 -12z"/>
</g>
</svg>
